<svg xmlns="http://www.w3.org/2000/svg" xmlns:xlink="http://www.w3.org/1999/xlink" width="300" zoomAndPan="magnify" viewBox="0 0 224.87999 149.999998" height="200" preserveAspectRatio="xMidYMid meet" version="1.0"><defs><g/><clipPath id="46c909b72b"><path d="M 0 0.0390625 L 224.761719 0.0390625 L 224.761719 149.960938 L 0 149.960938 Z M 0 0.0390625 " clip-rule="nonzero"/></clipPath><clipPath id="3bce58ecef"><path d="M 175 60 L 224.761719 60 L 224.761719 115 L 175 115 Z M 175 60 " clip-rule="nonzero"/></clipPath><clipPath id="ed6d2a55db"><path d="M 0 13 L 78 13 L 78 94 L 0 94 Z M 0 13 " clip-rule="nonzero"/></clipPath><clipPath id="cef80dc39d"><path d="M -7.203125 72.175781 L 43.75 -3.765625 L 94.171875 30.066406 L 43.214844 106.003906 Z M -7.203125 72.175781 " clip-rule="nonzero"/></clipPath><clipPath id="506264119f"><path d="M -7.203125 72.175781 L 43.75 -3.765625 L 94.171875 30.066406 L 43.214844 106.003906 Z M -7.203125 72.175781 " clip-rule="nonzero"/></clipPath><clipPath id="91d9b2a632"><path d="M 2 14 L 76 14 L 76 91 L 2 91 Z M 2 14 " clip-rule="nonzero"/></clipPath><clipPath id="7f4553a15e"><path d="M -7.203125 72.175781 L 43.75 -3.765625 L 94.171875 30.066406 L 43.214844 106.003906 Z M -7.203125 72.175781 " clip-rule="nonzero"/></clipPath><clipPath id="a68cb59a30"><path d="M -7.203125 72.175781 L 43.75 -3.765625 L 94.171875 30.066406 L 43.214844 106.003906 Z M -7.203125 72.175781 " clip-rule="nonzero"/></clipPath><clipPath id="bf2b40b71b"><path d="M 9 72 L 25 72 L 25 80 L 9 80 Z M 9 72 " clip-rule="nonzero"/></clipPath><clipPath id="81c6667ac6"><path d="M -7.203125 72.175781 L 43.75 -3.765625 L 94.171875 30.066406 L 43.214844 106.003906 Z M -7.203125 72.175781 " clip-rule="nonzero"/></clipPath><clipPath id="d406d26617"><path d="M -7.203125 72.175781 L 43.75 -3.765625 L 94.171875 30.066406 L 43.214844 106.003906 Z M -7.203125 72.175781 " clip-rule="nonzero"/></clipPath><clipPath id="0e3a8b3be5"><path d="M 30 32 L 45 32 L 45 49 L 30 49 Z M 30 32 " clip-rule="nonzero"/></clipPath><clipPath id="cf1ca1472b"><path d="M -7.203125 72.175781 L 43.75 -3.765625 L 94.171875 30.066406 L 43.214844 106.003906 Z M -7.203125 72.175781 " clip-rule="nonzero"/></clipPath><clipPath id="29326a342d"><path d="M -7.203125 72.175781 L 43.75 -3.765625 L 94.171875 30.066406 L 43.214844 106.003906 Z M -7.203125 72.175781 " clip-rule="nonzero"/></clipPath><clipPath id="e7172f5c87"><path d="M 31 28 L 74 28 L 74 66 L 31 66 Z M 31 28 " clip-rule="nonzero"/></clipPath><clipPath id="23d8dcbe06"><path d="M -7.203125 72.175781 L 43.75 -3.765625 L 94.171875 30.066406 L 43.214844 106.003906 Z M -7.203125 72.175781 " clip-rule="nonzero"/></clipPath><clipPath id="86efe416ee"><path d="M -7.203125 72.175781 L 43.75 -3.765625 L 94.171875 30.066406 L 43.214844 106.003906 Z M -7.203125 72.175781 " clip-rule="nonzero"/></clipPath><clipPath id="98985a65f3"><path d="M 20 44 L 39 44 L 39 53 L 20 53 Z M 20 44 " clip-rule="nonzero"/></clipPath><clipPath id="3182d874fd"><path d="M -7.203125 72.175781 L 43.75 -3.765625 L 94.171875 30.066406 L 43.214844 106.003906 Z M -7.203125 72.175781 " clip-rule="nonzero"/></clipPath><clipPath id="3afd6a5866"><path d="M -7.203125 72.175781 L 43.75 -3.765625 L 94.171875 30.066406 L 43.214844 106.003906 Z M -7.203125 72.175781 " clip-rule="nonzero"/></clipPath><clipPath id="c581c5437d"><path d="M 60 45 L 65 45 L 65 53 L 60 53 Z M 60 45 " clip-rule="nonzero"/></clipPath><clipPath id="d1e3fb5b25"><path d="M -7.203125 72.175781 L 43.75 -3.765625 L 94.171875 30.066406 L 43.214844 106.003906 Z M -7.203125 72.175781 " clip-rule="nonzero"/></clipPath><clipPath id="80d2fa7fa6"><path d="M -7.203125 72.175781 L 43.75 -3.765625 L 94.171875 30.066406 L 43.214844 106.003906 Z M -7.203125 72.175781 " clip-rule="nonzero"/></clipPath><clipPath id="6652147bfb"><path d="M 41 33 L 67 33 L 67 56 L 41 56 Z M 41 33 " clip-rule="nonzero"/></clipPath><clipPath id="17dadc22c0"><path d="M -7.203125 72.175781 L 43.75 -3.765625 L 94.171875 30.066406 L 43.214844 106.003906 Z M -7.203125 72.175781 " clip-rule="nonzero"/></clipPath><clipPath id="3caa0ff309"><path d="M -7.203125 72.175781 L 43.75 -3.765625 L 94.171875 30.066406 L 43.214844 106.003906 Z M -7.203125 72.175781 " clip-rule="nonzero"/></clipPath><clipPath id="b5b985d91b"><path d="M 31 53 L 49 53 L 49 67 L 31 67 Z M 31 53 " clip-rule="nonzero"/></clipPath><clipPath id="9c9a700322"><path d="M -7.203125 72.175781 L 43.75 -3.765625 L 94.171875 30.066406 L 43.214844 106.003906 Z M -7.203125 72.175781 " clip-rule="nonzero"/></clipPath><clipPath id="eb982e4ea6"><path d="M -7.203125 72.175781 L 43.75 -3.765625 L 94.171875 30.066406 L 43.214844 106.003906 Z M -7.203125 72.175781 " clip-rule="nonzero"/></clipPath><clipPath id="ec6c54dabf"><path d="M 18 73 L 26 73 L 26 79 L 18 79 Z M 18 73 " clip-rule="nonzero"/></clipPath><clipPath id="d719c2b9b0"><path d="M -7.203125 72.175781 L 43.75 -3.765625 L 94.171875 30.066406 L 43.214844 106.003906 Z M -7.203125 72.175781 " clip-rule="nonzero"/></clipPath><clipPath id="308cf61637"><path d="M -7.203125 72.175781 L 43.75 -3.765625 L 94.171875 30.066406 L 43.214844 106.003906 Z M -7.203125 72.175781 " clip-rule="nonzero"/></clipPath></defs><g clip-path="url(#46c909b72b)"><path fill="#ffffff" d="M 0 0.0390625 L 224.878906 0.0390625 L 224.878906 149.960938 L 0 149.960938 Z M 0 0.0390625 " fill-opacity="1" fill-rule="nonzero"/><path fill="#ffffff" d="M 0 0.0390625 L 224.878906 0.0390625 L 224.878906 149.960938 L 0 149.960938 Z M 0 0.0390625 " fill-opacity="1" fill-rule="nonzero"/></g><g fill="#1b2123" fill-opacity="1"><g transform="translate(30.159806, 113.63879)"><g><path d="M 59.28125 -26.03125 C 59.28125 -25.894531 59.179688 -24.382812 58.984375 -21.5 L 21.015625 -21.5 C 21.785156 -18.800781 23.28125 -16.726562 25.5 -15.28125 C 27.71875 -13.832031 30.492188 -13.109375 33.828125 -13.109375 C 36.335938 -13.109375 38.507812 -13.460938 40.34375 -14.171875 C 42.175781 -14.878906 44.019531 -16.035156 45.875 -17.640625 L 55.515625 -7.609375 C 50.441406 -1.953125 43.019531 0.875 33.25 0.875 C 27.144531 0.875 21.78125 -0.28125 17.15625 -2.59375 C 12.53125 -4.914062 8.945312 -8.128906 6.40625 -12.234375 C 3.875 -16.347656 2.609375 -21.007812 2.609375 -26.21875 C 2.609375 -31.351562 3.84375 -35.960938 6.3125 -40.046875 C 8.789062 -44.128906 12.210938 -47.328125 16.578125 -49.640625 C 20.953125 -51.953125 25.867188 -53.109375 31.328125 -53.109375 C 36.535156 -53.109375 41.257812 -52.03125 45.5 -49.875 C 49.738281 -47.726562 53.09375 -44.613281 55.5625 -40.53125 C 58.039062 -36.445312 59.28125 -31.613281 59.28125 -26.03125 Z M 31.421875 -40.09375 C 28.597656 -40.09375 26.238281 -39.289062 24.34375 -37.6875 C 22.445312 -36.082031 21.238281 -33.898438 20.71875 -31.140625 L 42.125 -31.140625 C 41.613281 -33.898438 40.410156 -36.082031 38.515625 -37.6875 C 36.617188 -39.289062 34.253906 -40.09375 31.421875 -40.09375 Z M 31.421875 -40.09375 "/></g></g></g><g fill="#1b2123" fill-opacity="1"><g transform="translate(84.705894, 113.63879)"><g><path d="M 28.140625 -53.109375 C 36.816406 -53.109375 43.4375 -51.128906 48 -47.171875 C 52.5625 -43.222656 54.84375 -37.171875 54.84375 -29.015625 L 54.84375 0 L 37.78125 0 L 37.78125 -6.75 C 35.144531 -1.664062 30.003906 0.875 22.359375 0.875 C 18.316406 0.875 14.816406 0.164062 11.859375 -1.25 C 8.898438 -2.664062 6.664062 -4.578125 5.15625 -6.984375 C 3.644531 -9.398438 2.890625 -12.148438 2.890625 -15.234375 C 2.890625 -20.179688 4.785156 -24.019531 8.578125 -26.75 C 12.367188 -29.476562 18.21875 -30.84375 26.125 -30.84375 L 36.53125 -30.84375 C 36.207031 -36.375 32.515625 -39.140625 25.453125 -39.140625 C 22.941406 -39.140625 20.398438 -38.734375 17.828125 -37.921875 C 15.265625 -37.117188 13.082031 -36.015625 11.28125 -34.609375 L 5.109375 -47.03125 C 8.003906 -48.96875 11.519531 -50.460938 15.65625 -51.515625 C 19.800781 -52.578125 23.960938 -53.109375 28.140625 -53.109375 Z M 27.46875 -10.703125 C 29.59375 -10.703125 31.457031 -11.210938 33.0625 -12.234375 C 34.664062 -13.265625 35.820312 -14.773438 36.53125 -16.765625 L 36.53125 -21.296875 L 28.625 -21.296875 C 23.289062 -21.296875 20.625 -19.53125 20.625 -16 C 20.625 -14.394531 21.234375 -13.109375 22.453125 -12.140625 C 23.679688 -11.179688 25.351562 -10.703125 27.46875 -10.703125 Z M 27.46875 -10.703125 "/></g></g></g><g fill="#1b2123" fill-opacity="1"><g transform="translate(137.902742, 113.63879)"><g><path d="M 41.9375 -2.125 C 40.382812 -1.15625 38.5 -0.414062 36.28125 0.09375 C 34.070312 0.613281 31.710938 0.875 29.203125 0.875 C 22.390625 0.875 17.148438 -0.796875 13.484375 -4.140625 C 9.828125 -7.484375 8 -12.460938 8 -19.078125 L 8 -36.625 L 0.390625 -36.625 L 0.390625 -50.3125 L 8 -50.3125 L 8 -63.90625 L 26.3125 -63.90625 L 26.3125 -50.3125 L 38.265625 -50.3125 L 38.265625 -36.625 L 26.3125 -36.625 L 26.3125 -19.28125 C 26.3125 -17.414062 26.804688 -15.953125 27.796875 -14.890625 C 28.796875 -13.828125 30.132812 -13.296875 31.8125 -13.296875 C 33.925781 -13.296875 35.789062 -13.84375 37.40625 -14.9375 Z M 41.9375 -2.125 "/></g></g></g><g clip-path="url(#3bce58ecef)"><g fill="#1b2123" fill-opacity="1"><g transform="translate(173.655977, 113.63879)"><g><path d="M 24.875 0.875 C 20.5 0.875 16.191406 0.375 11.953125 -0.625 C 7.710938 -1.625 4.304688 -2.925781 1.734375 -4.53125 L 7.234375 -17.0625 C 9.609375 -15.582031 12.429688 -14.40625 15.703125 -13.53125 C 18.984375 -12.664062 22.234375 -12.234375 25.453125 -12.234375 C 28.398438 -12.234375 30.5 -12.539062 31.75 -13.15625 C 33.007812 -13.769531 33.640625 -14.65625 33.640625 -15.8125 C 33.640625 -16.96875 32.882812 -17.785156 31.375 -18.265625 C 29.863281 -18.742188 27.46875 -19.207031 24.1875 -19.65625 C 20.007812 -20.175781 16.457031 -20.851562 13.53125 -21.6875 C 10.613281 -22.519531 8.09375 -24.0625 5.96875 -26.3125 C 3.851562 -28.5625 2.796875 -31.710938 2.796875 -35.765625 C 2.796875 -39.097656 3.789062 -42.066406 5.78125 -44.671875 C 7.769531 -47.273438 10.675781 -49.332031 14.5 -50.84375 C 18.320312 -52.351562 22.90625 -53.109375 28.25 -53.109375 C 32.03125 -53.109375 35.785156 -52.722656 39.515625 -51.953125 C 43.242188 -51.179688 46.363281 -50.085938 48.875 -48.671875 L 43.375 -36.25 C 38.75 -38.8125 33.738281 -40.09375 28.34375 -40.09375 C 25.445312 -40.09375 23.320312 -39.753906 21.96875 -39.078125 C 20.625 -38.410156 19.953125 -37.53125 19.953125 -36.4375 C 19.953125 -35.21875 20.691406 -34.363281 22.171875 -33.875 C 23.648438 -33.394531 26.09375 -32.898438 29.5 -32.390625 C 33.800781 -31.742188 37.363281 -31.003906 40.1875 -30.171875 C 43.019531 -29.335938 45.476562 -27.8125 47.5625 -25.59375 C 49.65625 -23.375 50.703125 -20.273438 50.703125 -16.296875 C 50.703125 -13.015625 49.703125 -10.070312 47.703125 -7.46875 C 45.710938 -4.863281 42.773438 -2.820312 38.890625 -1.34375 C 35.003906 0.132812 30.332031 0.875 24.875 0.875 Z M 24.875 0.875 "/></g></g></g></g><g clip-path="url(#ed6d2a55db)"><g clip-path="url(#cef80dc39d)"><g clip-path="url(#506264119f)"><path fill="#1b2123" d="M 71.460938 61.238281 C 61.84375 65.214844 51.953125 71.582031 43.609375 79.160156 C 39.457031 82.929688 35.792969 86.902344 32.714844 90.964844 L 31.140625 93.039062 L 24.597656 78.378906 C 21.699219 80.320312 15.339844 83.703125 8.558594 81.574219 C 5.269531 80.542969 3.082031 78.878906 1.867188 76.484375 C 0.277344 73.347656 -1.859375 64.246094 6.777344 57.054688 C 13.09375 51.316406 23.101562 49.984375 25.183594 49.765625 C 25.863281 49.339844 26.484375 48.871094 27.0625 48.34375 C 29.398438 46.222656 30.792969 43.367188 32.402344 40.066406 C 34.703125 35.347656 37.570312 29.476562 44.371094 23.296875 C 45.207031 22.535156 46.097656 21.777344 47.019531 21.039062 C 55.0625 14.59375 61.496094 12.265625 66.675781 13.921875 C 68.972656 14.65625 74.933594 18.703125 77.0625 26.371094 C 78.28125 30.429688 76.984375 34.738281 74.679688 39.054688 C 73.589844 41.09375 71.492188 44.25 67.671875 47.722656 C 66.625 48.671875 65.683594 49.433594 64.96875 49.980469 L 73.34375 60.457031 Z M 71.460938 61.238281 " fill-opacity="1" fill-rule="nonzero"/></g></g></g><g clip-path="url(#91d9b2a632)"><g clip-path="url(#7f4553a15e)"><g clip-path="url(#a68cb59a30)"><path fill="#ff3131" d="M 74.835938 26.859375 C 76.164062 31.269531 74.988281 35.449219 72.9375 38.992188 C 69.257812 45.347656 62.753906 49.671875 62.753906 49.671875 L 70.855469 59.804688 C 67.132812 61.34375 63.382812 63.230469 59.691406 65.398438 C 48.9375 71.714844 38.738281 80.441406 31.476562 90.019531 L 25.214844 75.988281 C 25.214844 75.988281 17.324219 82.710938 9 80.097656 C 3.710938 78.441406 0.613281 72.894531 3.292969 64.378906 C 7.242188 53.085938 25.699219 51.273438 25.699219 51.273438 C 34.894531 45.820312 32.445312 34.714844 47.996094 22.253906 C 63.492188 9.832031 71.132812 14.550781 74.835938 26.859375 Z M 74.835938 26.859375 " fill-opacity="1" fill-rule="nonzero"/></g></g></g><g clip-path="url(#bf2b40b71b)"><g clip-path="url(#81c6667ac6)"><g clip-path="url(#d406d26617)"><path fill="#ff3131" d="M 24.257812 76.238281 C 24.257812 76.238281 17.96875 79.378906 14.253906 78.992188 C 10.449219 78.597656 8.957031 76.863281 9.691406 76.796875 C 10.425781 76.734375 14.042969 77.875 15.679688 76.183594 C 17.316406 74.496094 13.078125 73.320312 15.089844 72.699219 C 17.101562 72.074219 20.007812 72.652344 21.855469 73.59375 C 23.699219 74.53125 24.257812 76.238281 24.257812 76.238281 Z M 24.257812 76.238281 " fill-opacity="1" fill-rule="nonzero"/></g></g></g><g clip-path="url(#0e3a8b3be5)"><g clip-path="url(#cf1ca1472b)"><g clip-path="url(#29326a342d)"><path fill="#ff3131" d="M 30.941406 48.46875 C 30.941406 48.46875 34.988281 45.664062 37.726562 40.230469 C 40.46875 34.792969 43.011719 31.429688 44.164062 32.695312 C 45.316406 33.964844 45.402344 37.253906 41.152344 42.167969 C 36.898438 47.082031 30.941406 48.46875 30.941406 48.46875 Z M 30.941406 48.46875 " fill-opacity="1" fill-rule="nonzero"/></g></g></g><g clip-path="url(#e7172f5c87)"><g clip-path="url(#23d8dcbe06)"><g clip-path="url(#86efe416ee)"><path fill="#ff3131" d="M 73.734375 33.554688 C 73.71875 33.675781 73.289062 36.898438 72.9375 38.992188 C 69.257812 45.347656 62.753906 49.671875 62.753906 49.671875 L 70.855469 59.808594 C 67.132812 61.347656 63.378906 63.230469 59.691406 65.398438 C 60.289062 64.164062 60.449219 62.601562 59.5625 60.703125 C 56.929688 55.050781 54.085938 52.535156 54.085938 52.535156 C 54.085938 52.535156 50.828125 60.027344 46.28125 63.023438 C 41.773438 65.996094 31.914062 64.902344 31.757812 64.882812 C 31.84375 64.835938 36.453125 62.316406 38.589844 60.09375 C 40.742188 57.851562 40.742188 57.851562 40.742188 57.851562 C 37.214844 56.492188 33.953125 55.101562 35.921875 53.160156 C 35.921875 53.160156 47.066406 54.660156 55.929688 43.492188 C 64.789062 32.320312 61.59375 27.574219 65.828125 28.542969 C 70.066406 29.511719 67.722656 39.859375 70.140625 38.515625 C 72.511719 37.195312 73.691406 33.675781 73.734375 33.554688 Z M 73.734375 33.554688 " fill-opacity="1" fill-rule="nonzero"/></g></g></g><g clip-path="url(#98985a65f3)"><g clip-path="url(#3182d874fd)"><g clip-path="url(#3afd6a5866)"><path fill="#1b2123" d="M 20.417969 52.050781 C 20.417969 52.050781 26.617188 51.824219 31.476562 49.996094 C 36.335938 48.167969 38.59375 44.101562 38.59375 44.101562 C 38.59375 44.101562 34.28125 47.15625 30.941406 48.46875 C 27.597656 49.78125 26.84375 49.890625 26.84375 49.890625 Z M 20.417969 52.050781 " fill-opacity="1" fill-rule="nonzero"/></g></g></g><g clip-path="url(#c581c5437d)"><g clip-path="url(#d1e3fb5b25)"><g clip-path="url(#80d2fa7fa6)"><path fill="#1b2123" d="M 60.214844 45.28125 C 60.335938 46.277344 62.742188 49.589844 64.640625 52.019531 L 64.96875 49.984375 C 63.542969 48.28125 62.363281 46.746094 61.386719 45.34375 Z M 60.214844 45.28125 " fill-opacity="1" fill-rule="nonzero"/></g></g></g><g clip-path="url(#6652147bfb)"><g clip-path="url(#17dadc22c0)"><g clip-path="url(#3caa0ff309)"><path fill="#1b2123" d="M 66.335938 33.59375 C 66.335938 33.59375 66.574219 40.015625 57.691406 47.140625 C 48.8125 54.269531 41.269531 55.425781 41.269531 55.425781 C 41.269531 55.425781 49.109375 55.6875 57.703125 49.695312 C 63.015625 45.8125 61.605469 46.832031 64.207031 43.292969 C 66.804688 39.75 66.335938 33.59375 66.335938 33.59375 Z M 66.335938 33.59375 " fill-opacity="1" fill-rule="nonzero"/></g></g></g><g clip-path="url(#b5b985d91b)"><g clip-path="url(#9c9a700322)"><g clip-path="url(#eb982e4ea6)"><path fill="#1b2123" d="M 46.011719 54.464844 C 44.1875 59.617188 37.953125 64.878906 31.238281 66.234375 C 31.238281 66.234375 33.882812 67.113281 39.730469 64.140625 C 45.582031 61.167969 48.945312 53.425781 48.945312 53.425781 Z M 46.011719 54.464844 " fill-opacity="1" fill-rule="nonzero"/></g></g></g><g clip-path="url(#ec6c54dabf)"><g clip-path="url(#d719c2b9b0)"><g clip-path="url(#308cf61637)"><path fill="#1b2123" d="M 25.867188 77.878906 C 25.796875 77.425781 25.496094 75.972656 24.550781 74.933594 C 23.605469 73.890625 18.238281 73.417969 18.238281 73.417969 C 18.238281 73.417969 21.777344 74.691406 22.910156 75.5625 C 24.039062 76.433594 24.597656 78.378906 24.597656 78.378906 Z M 25.867188 77.878906 " fill-opacity="1" fill-rule="nonzero"/></g></g></g></svg>