<svg xmlns="http://www.w3.org/2000/svg" xmlns:xlink="http://www.w3.org/1999/xlink" width="300" zoomAndPan="magnify" viewBox="0 0 224.87999 149.999998" height="200" preserveAspectRatio="xMidYMid meet" version="1.0"><defs><clipPath id="0da0560a08"><path d="M 1 7 L 224 7 L 224 137 L 1 137 Z M 1 7 " clip-rule="nonzero"/></clipPath><clipPath id="8e225dd8b3"><path d="M -11.535156 43.542969 L 191.960938 -46.753906 L 251.550781 87.539062 L 48.054688 177.835938 Z M -11.535156 43.542969 " clip-rule="nonzero"/></clipPath><clipPath id="9b84a29ca6"><path d="M -11.535156 43.542969 L 191.960938 -46.753906 L 251.550781 87.539062 L 48.054688 177.835938 Z M -11.535156 43.542969 " clip-rule="nonzero"/></clipPath><clipPath id="62a44d950d"><path d="M 6 11 L 219 11 L 219 131 L 6 131 Z M 6 11 " clip-rule="nonzero"/></clipPath><clipPath id="deeafe3d41"><path d="M -11.535156 43.542969 L 191.960938 -46.753906 L 251.550781 87.539062 L 48.054688 177.835938 Z M -11.535156 43.542969 " clip-rule="nonzero"/></clipPath><clipPath id="31668cf650"><path d="M -11.535156 43.542969 L 191.960938 -46.753906 L 251.550781 87.539062 L 48.054688 177.835938 Z M -11.535156 43.542969 " clip-rule="nonzero"/></clipPath><clipPath id="459f4978fa"><path d="M 16 73 L 49 73 L 49 93 L 16 93 Z M 16 73 " clip-rule="nonzero"/></clipPath><clipPath id="26935558ee"><path d="M -11.535156 43.542969 L 191.960938 -46.753906 L 251.550781 87.539062 L 48.054688 177.835938 Z M -11.535156 43.542969 " clip-rule="nonzero"/></clipPath><clipPath id="0d45db7b4e"><path d="M -11.535156 43.542969 L 191.960938 -46.753906 L 251.550781 87.539062 L 48.054688 177.835938 Z M -11.535156 43.542969 " clip-rule="nonzero"/></clipPath><clipPath id="16fbb1f7a3"><path d="M 97 27 L 146 27 L 146 47 L 97 47 Z M 97 27 " clip-rule="nonzero"/></clipPath><clipPath id="a320b15f8b"><path d="M -11.535156 43.542969 L 191.960938 -46.753906 L 251.550781 87.539062 L 48.054688 177.835938 Z M -11.535156 43.542969 " clip-rule="nonzero"/></clipPath><clipPath id="2839f7cf63"><path d="M -11.535156 43.542969 L 191.960938 -46.753906 L 251.550781 87.539062 L 48.054688 177.835938 Z M -11.535156 43.542969 " clip-rule="nonzero"/></clipPath><clipPath id="9d3e8bc10c"><path d="M 78 46 L 206 46 L 206 120 L 78 120 Z M 78 46 " clip-rule="nonzero"/></clipPath><clipPath id="fbe72ac152"><path d="M -11.535156 43.542969 L 191.960938 -46.753906 L 251.550781 87.539062 L 48.054688 177.835938 Z M -11.535156 43.542969 " clip-rule="nonzero"/></clipPath><clipPath id="f91ae99bcc"><path d="M -11.535156 43.542969 L 191.960938 -46.753906 L 251.550781 87.539062 L 48.054688 177.835938 Z M -11.535156 43.542969 " clip-rule="nonzero"/></clipPath><clipPath id="070025cb65"><path d="M 71 37 L 120 37 L 120 49 L 71 49 Z M 71 37 " clip-rule="nonzero"/></clipPath><clipPath id="bc430f9cd8"><path d="M -11.535156 43.542969 L 191.960938 -46.753906 L 251.550781 87.539062 L 48.054688 177.835938 Z M -11.535156 43.542969 " clip-rule="nonzero"/></clipPath><clipPath id="b9aa57e5fa"><path d="M -11.535156 43.542969 L 191.960938 -46.753906 L 251.550781 87.539062 L 48.054688 177.835938 Z M -11.535156 43.542969 " clip-rule="nonzero"/></clipPath><clipPath id="c653b469e5"><path d="M 161 75 L 166 75 L 166 96 L 161 96 Z M 161 75 " clip-rule="nonzero"/></clipPath><clipPath id="b457e8aea1"><path d="M -11.535156 43.542969 L 191.960938 -46.753906 L 251.550781 87.539062 L 48.054688 177.835938 Z M -11.535156 43.542969 " clip-rule="nonzero"/></clipPath><clipPath id="b15c169d1d"><path d="M -11.535156 43.542969 L 191.960938 -46.753906 L 251.550781 87.539062 L 48.054688 177.835938 Z M -11.535156 43.542969 " clip-rule="nonzero"/></clipPath><clipPath id="5bba5ecb8f"><path d="M 109 59 L 190 59 L 190 82 L 109 82 Z M 109 59 " clip-rule="nonzero"/></clipPath><clipPath id="fa3b2db09e"><path d="M -11.535156 43.542969 L 191.960938 -46.753906 L 251.550781 87.539062 L 48.054688 177.835938 Z M -11.535156 43.542969 " clip-rule="nonzero"/></clipPath><clipPath id="c12e2f1680"><path d="M -11.535156 43.542969 L 191.960938 -46.753906 L 251.550781 87.539062 L 48.054688 177.835938 Z M -11.535156 43.542969 " clip-rule="nonzero"/></clipPath><clipPath id="71c97d1684"><path d="M 75 76 L 129 76 L 129 89 L 75 89 Z M 75 76 " clip-rule="nonzero"/></clipPath><clipPath id="beed0a9d82"><path d="M -11.535156 43.542969 L 191.960938 -46.753906 L 251.550781 87.539062 L 48.054688 177.835938 Z M -11.535156 43.542969 " clip-rule="nonzero"/></clipPath><clipPath id="63c721ca7e"><path d="M -11.535156 43.542969 L 191.960938 -46.753906 L 251.550781 87.539062 L 48.054688 177.835938 Z M -11.535156 43.542969 " clip-rule="nonzero"/></clipPath><clipPath id="6abd057b0d"><path d="M 39 79 L 51 79 L 51 99 L 39 99 Z M 39 79 " clip-rule="nonzero"/></clipPath><clipPath id="388573877b"><path d="M -11.535156 43.542969 L 191.960938 -46.753906 L 251.550781 87.539062 L 48.054688 177.835938 Z M -11.535156 43.542969 " clip-rule="nonzero"/></clipPath><clipPath id="1e15c2320a"><path d="M -11.535156 43.542969 L 191.960938 -46.753906 L 251.550781 87.539062 L 48.054688 177.835938 Z M -11.535156 43.542969 " clip-rule="nonzero"/></clipPath></defs><g clip-path="url(#0da0560a08)"><g clip-path="url(#8e225dd8b3)"><g clip-path="url(#9b84a29ca6)"><path fill="#ff3131" d="M 164.589844 123.058594 C 139.628906 118.773438 111.011719 119.046875 84.011719 123.828125 C 70.574219 126.207031 57.878906 129.628906 46.269531 134 L 40.34375 136.234375 L 45.882812 97.5625 C 37.398438 97.804688 19.921875 96.515625 8.71875 83.34375 C 3.289062 76.957031 0.945312 70.691406 1.550781 64.1875 C 2.347656 55.660156 9.75 34.164062 36.859375 30.554688 C 57.296875 26.9375 79.625 37.175781 84.199219 39.421875 C 86.15625 39.429688 88.03125 39.269531 89.917969 38.933594 C 97.476562 37.59375 104.042969 33.527344 111.644531 28.816406 C 122.5 22.089844 136.007812 13.722656 158.027344 9.820312 C 160.738281 9.339844 163.554688 8.933594 166.40625 8.609375 C 191.328125 5.769531 207.585938 9.316406 216.101562 19.449219 C 219.878906 23.941406 226.898438 40.003906 221.332031 58.546875 C 218.585938 68.484375 210.328125 75.667969 199.980469 81.566406 C 195.101562 84.347656 186.683594 88.125 174.3125 90.316406 C 170.929688 90.917969 168 91.265625 165.824219 91.464844 L 169.476562 123.894531 Z M 164.589844 123.058594 " fill-opacity="1" fill-rule="nonzero"/></g></g></g><g clip-path="url(#62a44d950d)"><g clip-path="url(#deeafe3d41)"><g clip-path="url(#31668cf650)"><path fill="#ffffff" d="M 216.121094 56.667969 C 213.132812 67.464844 205.300781 74.539062 196.476562 79.175781 C 180.660156 87.484375 161.664062 87.953125 161.664062 87.953125 L 165.199219 119.324219 C 155.542969 117.667969 145.371094 116.675781 134.96875 116.355469 C 104.636719 115.417969 72.320312 120.148438 44.953125 130.453125 L 50.253906 93.441406 C 50.253906 93.441406 25.296875 97.050781 11.546875 80.878906 C 2.808594 70.601562 3.625 55.167969 20.1875 41.113281 C 42.960938 22.984375 83.308594 43.195312 83.308594 43.195312 C 109.3125 43.894531 118.671875 17.863281 166.839844 12.375 C 214.851562 6.902344 224.460938 26.515625 216.121094 56.667969 Z M 216.121094 56.667969 " fill-opacity="1" fill-rule="nonzero"/></g></g></g><g clip-path="url(#459f4978fa)"><g clip-path="url(#26935558ee)"><g clip-path="url(#0d45db7b4e)"><path fill="#ffffff" d="M 47.964844 92.714844 C 47.964844 92.714844 30.9375 91.027344 23.796875 85.414062 C 16.480469 79.664062 15.652344 74.15625 17.25 74.976562 C 18.847656 75.796875 24.808594 82.835938 30.375 81.484375 C 35.9375 80.128906 28.730469 72.210938 33.683594 73.539062 C 38.632812 74.871094 43.867188 79.828125 46.445312 84.152344 C 49.027344 88.480469 47.964844 92.714844 47.964844 92.714844 Z M 47.964844 92.714844 " fill-opacity="1" fill-rule="nonzero"/></g></g></g><g clip-path="url(#16fbb1f7a3)"><g clip-path="url(#a320b15f8b)"><g clip-path="url(#2839f7cf63)"><path fill="#ffffff" d="M 97.730469 44.21875 C 97.730469 44.21875 109.707031 43.695312 122.394531 36.058594 C 135.082031 28.425781 144.6875 24.800781 145.414062 28.902344 C 146.140625 33.007812 142.046875 39.890625 126.921875 44.492188 C 111.800781 49.09375 97.730469 44.21875 97.730469 44.21875 Z M 97.730469 44.21875 " fill-opacity="1" fill-rule="nonzero"/></g></g></g><g clip-path="url(#9d3e8bc10c)"><g clip-path="url(#fbe72ac152)"><g clip-path="url(#f91ae99bcc)"><path fill="#ffffff" d="M 205.167969 69.011719 C 204.980469 69.242188 199.914062 75.324219 196.472656 79.175781 C 180.660156 87.484375 161.664062 87.953125 161.664062 87.953125 L 165.199219 119.324219 C 155.539062 117.667969 145.371094 116.675781 134.964844 116.355469 C 137.796875 114.59375 140.144531 111.585938 140.785156 106.523438 C 142.695312 91.476562 140.101562 82.605469 140.101562 82.605469 C 140.101562 82.605469 123.683594 93.808594 110.4375 94.082031 C 97.296875 94.351562 78.425781 79.308594 78.128906 79.070312 C 78.367188 79.082031 91.121094 79.871094 98.398438 78.070312 C 105.746094 76.25 105.746094 76.25 105.746094 76.25 C 100.246094 68.871094 95.332031 61.78125 101.90625 60.34375 C 101.90625 60.34375 122.902344 77.878906 155.628906 66.378906 C 188.355469 54.878906 187.933594 40.957031 195.398438 48.449219 C 202.859375 55.9375 184.621094 74.203125 191.332031 74.570312 C 197.925781 74.925781 204.925781 69.214844 205.167969 69.011719 Z M 205.167969 69.011719 " fill-opacity="1" fill-rule="nonzero"/></g></g></g><g clip-path="url(#070025cb65)"><g clip-path="url(#bc430f9cd8)"><g clip-path="url(#b9aa57e5fa)"><path fill="#ff3131" d="M 71.429688 37.949219 C 71.429688 37.949219 84.480469 45.515625 96.855469 48.054688 C 109.230469 50.59375 119.152344 45.15625 119.152344 45.15625 C 119.152344 45.15625 106.316406 45.855469 97.730469 44.222656 C 89.148438 42.585938 87.457031 41.835938 87.457031 41.835938 Z M 71.429688 37.949219 " fill-opacity="1" fill-rule="nonzero"/></g></g></g><g clip-path="url(#c653b469e5)"><g clip-path="url(#b457e8aea1)"><g clip-path="url(#b15c169d1d)"><path fill="#ff3131" d="M 162.132812 75.621094 C 161.089844 77.835938 161.75 87.769531 162.507812 95.230469 L 165.820312 91.46875 C 165.089844 86.117188 164.652344 81.421875 164.464844 77.277344 Z M 162.132812 75.621094 " fill-opacity="1" fill-rule="nonzero"/></g></g></g><g clip-path="url(#5bba5ecb8f)"><g clip-path="url(#fa3b2db09e)"><g clip-path="url(#c12e2f1680)"><path fill="#ff3131" d="M 189.894531 59.5 C 189.894531 59.5 182.054688 73.035156 154.527344 76.183594 C 127 79.335938 109.972656 71.933594 109.972656 71.933594 C 109.972656 71.933594 125.777344 82.640625 151.230469 81.449219 C 167.207031 80.347656 162.980469 80.621094 172.925781 76.703125 C 182.871094 72.785156 189.894531 59.5 189.894531 59.5 Z M 189.894531 59.5 " fill-opacity="1" fill-rule="nonzero"/></g></g></g><g clip-path="url(#71c97d1684)"><g clip-path="url(#beed0a9d82)"><g clip-path="url(#63c721ca7e)"><path fill="#ff3131" d="M 120.980469 76.109375 C 110.546875 84.355469 90.886719 87.097656 75.304688 81.175781 C 75.304688 81.175781 79.613281 86.410156 95.507812 87.882812 C 111.40625 89.351562 128.371094 77.773438 128.371094 77.773438 Z M 120.980469 76.109375 " fill-opacity="1" fill-rule="nonzero"/></g></g></g><g clip-path="url(#6abd057b0d)"><g clip-path="url(#388573877b)"><g clip-path="url(#1e15c2320a)"><path fill="#ff3131" d="M 49.144531 98.183594 C 49.585938 97.160156 50.855469 93.777344 50.261719 90.410156 C 49.664062 87.042969 39.226562 79.101562 39.226562 79.101562 C 39.226562 79.101562 44.863281 86.3125 46.0625 89.574219 C 47.265625 92.835938 45.882812 97.5625 45.882812 97.5625 Z M 49.144531 98.183594 " fill-opacity="1" fill-rule="nonzero"/></g></g></g></svg>