<svg xmlns="http://www.w3.org/2000/svg" xmlns:xlink="http://www.w3.org/1999/xlink" width="300" zoomAndPan="magnify" viewBox="0 0 224.87999 149.999998" height="200" preserveAspectRatio="xMidYMid meet" version="1.0"><defs><g/><clipPath id="631f04d0ec"><path d="M 7 0.0390625 L 74 0.0390625 L 74 69 L 7 69 Z M 7 0.0390625 " clip-rule="nonzero"/></clipPath><clipPath id="55b5a1a22b"><path d="M 0.828125 51.101562 L 44.265625 -13.636719 L 87.214844 15.183594 L 43.78125 79.917969 Z M 0.828125 51.101562 " clip-rule="nonzero"/></clipPath><clipPath id="980683805f"><path d="M 0.828125 51.101562 L 44.265625 -13.636719 L 87.214844 15.183594 L 43.78125 79.917969 Z M 0.828125 51.101562 " clip-rule="nonzero"/></clipPath><clipPath id="bd606846a5"><path d="M 8 2 L 72 2 L 72 67 L 8 67 Z M 8 2 " clip-rule="nonzero"/></clipPath><clipPath id="703a417a6d"><path d="M 0.828125 51.101562 L 44.265625 -13.636719 L 87.214844 15.183594 L 43.78125 79.917969 Z M 0.828125 51.101562 " clip-rule="nonzero"/></clipPath><clipPath id="5b92d8ebac"><path d="M 0.828125 51.101562 L 44.265625 -13.636719 L 87.214844 15.183594 L 43.78125 79.917969 Z M 0.828125 51.101562 " clip-rule="nonzero"/></clipPath><clipPath id="c725843a16"><path d="M 15 51 L 28 51 L 28 57 L 15 57 Z M 15 51 " clip-rule="nonzero"/></clipPath><clipPath id="c61448e4c3"><path d="M 0.828125 51.101562 L 44.265625 -13.636719 L 87.214844 15.183594 L 43.78125 79.917969 Z M 0.828125 51.101562 " clip-rule="nonzero"/></clipPath><clipPath id="520c5a2fbf"><path d="M 0.828125 51.101562 L 44.265625 -13.636719 L 87.214844 15.183594 L 43.78125 79.917969 Z M 0.828125 51.101562 " clip-rule="nonzero"/></clipPath><clipPath id="992360def3"><path d="M 33 17 L 46 17 L 46 31 L 33 31 Z M 33 17 " clip-rule="nonzero"/></clipPath><clipPath id="70206df4cd"><path d="M 0.828125 51.101562 L 44.265625 -13.636719 L 87.214844 15.183594 L 43.78125 79.917969 Z M 0.828125 51.101562 " clip-rule="nonzero"/></clipPath><clipPath id="2d45cd1be4"><path d="M 0.828125 51.101562 L 44.265625 -13.636719 L 87.214844 15.183594 L 43.78125 79.917969 Z M 0.828125 51.101562 " clip-rule="nonzero"/></clipPath><clipPath id="74532ea4e5"><path d="M 34 13 L 70 13 L 70 46 L 34 46 Z M 34 13 " clip-rule="nonzero"/></clipPath><clipPath id="d8e88b9879"><path d="M 0.828125 51.101562 L 44.265625 -13.636719 L 87.214844 15.183594 L 43.78125 79.917969 Z M 0.828125 51.101562 " clip-rule="nonzero"/></clipPath><clipPath id="da3304f4df"><path d="M 0.828125 51.101562 L 44.265625 -13.636719 L 87.214844 15.183594 L 43.78125 79.917969 Z M 0.828125 51.101562 " clip-rule="nonzero"/></clipPath><clipPath id="e3d25a0748"><path d="M 24 27 L 40 27 L 40 34 L 24 34 Z M 24 27 " clip-rule="nonzero"/></clipPath><clipPath id="18d27bed72"><path d="M 0.828125 51.101562 L 44.265625 -13.636719 L 87.214844 15.183594 L 43.78125 79.917969 Z M 0.828125 51.101562 " clip-rule="nonzero"/></clipPath><clipPath id="4de3604c6c"><path d="M 0.828125 51.101562 L 44.265625 -13.636719 L 87.214844 15.183594 L 43.78125 79.917969 Z M 0.828125 51.101562 " clip-rule="nonzero"/></clipPath><clipPath id="667f51a45f"><path d="M 58 28 L 63 28 L 63 34 L 58 34 Z M 58 28 " clip-rule="nonzero"/></clipPath><clipPath id="1e1eb75ec0"><path d="M 0.828125 51.101562 L 44.265625 -13.636719 L 87.214844 15.183594 L 43.78125 79.917969 Z M 0.828125 51.101562 " clip-rule="nonzero"/></clipPath><clipPath id="a93ec7a8fd"><path d="M 0.828125 51.101562 L 44.265625 -13.636719 L 87.214844 15.183594 L 43.78125 79.917969 Z M 0.828125 51.101562 " clip-rule="nonzero"/></clipPath><clipPath id="aa9eb78d62"><path d="M 42 18 L 64 18 L 64 37 L 42 37 Z M 42 18 " clip-rule="nonzero"/></clipPath><clipPath id="6c11a6b4eb"><path d="M 0.828125 51.101562 L 44.265625 -13.636719 L 87.214844 15.183594 L 43.78125 79.917969 Z M 0.828125 51.101562 " clip-rule="nonzero"/></clipPath><clipPath id="f31d495ffe"><path d="M 0.828125 51.101562 L 44.265625 -13.636719 L 87.214844 15.183594 L 43.78125 79.917969 Z M 0.828125 51.101562 " clip-rule="nonzero"/></clipPath><clipPath id="9fc5af9807"><path d="M 33 35 L 49 35 L 49 47 L 33 47 Z M 33 35 " clip-rule="nonzero"/></clipPath><clipPath id="51ef198fc8"><path d="M 0.828125 51.101562 L 44.265625 -13.636719 L 87.214844 15.183594 L 43.78125 79.917969 Z M 0.828125 51.101562 " clip-rule="nonzero"/></clipPath><clipPath id="c01730f1a8"><path d="M 0.828125 51.101562 L 44.265625 -13.636719 L 87.214844 15.183594 L 43.78125 79.917969 Z M 0.828125 51.101562 " clip-rule="nonzero"/></clipPath><clipPath id="e77bec8f1e"><path d="M 22 52 L 30 52 L 30 57 L 22 57 Z M 22 52 " clip-rule="nonzero"/></clipPath><clipPath id="99efa1b43b"><path d="M 0.828125 51.101562 L 44.265625 -13.636719 L 87.214844 15.183594 L 43.78125 79.917969 Z M 0.828125 51.101562 " clip-rule="nonzero"/></clipPath><clipPath id="abbf09c0ec"><path d="M 0.828125 51.101562 L 44.265625 -13.636719 L 87.214844 15.183594 L 43.78125 79.917969 Z M 0.828125 51.101562 " clip-rule="nonzero"/></clipPath></defs><g fill="#1b2123" fill-opacity="1"><g transform="translate(32.735781, 86.509424)"><g><path d="M 50.625 -22.21875 C 50.625 -22.113281 50.539062 -20.828125 50.375 -18.359375 L 17.9375 -18.359375 C 18.601562 -16.054688 19.878906 -14.285156 21.765625 -13.046875 C 23.660156 -11.804688 26.035156 -11.1875 28.890625 -11.1875 C 31.035156 -11.1875 32.890625 -11.488281 34.453125 -12.09375 C 36.015625 -12.695312 37.59375 -13.6875 39.1875 -15.0625 L 47.40625 -6.5 C 43.070312 -1.675781 36.734375 0.734375 28.390625 0.734375 C 23.179688 0.734375 18.597656 -0.25 14.640625 -2.21875 C 10.691406 -4.195312 7.632812 -6.941406 5.46875 -10.453125 C 3.300781 -13.960938 2.21875 -17.941406 2.21875 -22.390625 C 2.21875 -26.773438 3.273438 -30.707031 5.390625 -34.1875 C 7.503906 -37.675781 10.425781 -40.410156 14.15625 -42.390625 C 17.882812 -44.367188 22.082031 -45.359375 26.75 -45.359375 C 31.195312 -45.359375 35.226562 -44.4375 38.84375 -42.59375 C 42.46875 -40.757812 45.335938 -38.097656 47.453125 -34.609375 C 49.566406 -31.128906 50.625 -27 50.625 -22.21875 Z M 26.828125 -34.234375 C 24.421875 -34.234375 22.40625 -33.546875 20.78125 -32.171875 C 19.164062 -30.804688 18.140625 -28.945312 17.703125 -26.59375 L 35.96875 -26.59375 C 35.53125 -28.945312 34.5 -30.804688 32.875 -32.171875 C 31.257812 -33.546875 29.242188 -34.234375 26.828125 -34.234375 Z M 26.828125 -34.234375 "/></g></g></g><g fill="#1b2123" fill-opacity="1"><g transform="translate(79.315577, 86.509424)"><g><path d="M 24.03125 -45.359375 C 31.4375 -45.359375 37.085938 -43.671875 40.984375 -40.296875 C 44.878906 -36.921875 46.828125 -31.75 46.828125 -24.78125 L 46.828125 0 L 32.265625 0 L 32.265625 -5.765625 C 30.015625 -1.429688 25.625 0.734375 19.09375 0.734375 C 15.632812 0.734375 12.644531 0.132812 10.125 -1.0625 C 7.601562 -2.269531 5.695312 -3.898438 4.40625 -5.953125 C 3.113281 -8.015625 2.46875 -10.363281 2.46875 -13 C 2.46875 -17.226562 4.085938 -20.507812 7.328125 -22.84375 C 10.566406 -25.175781 15.5625 -26.34375 22.3125 -26.34375 L 31.203125 -26.34375 C 30.921875 -31.0625 27.765625 -33.421875 21.734375 -33.421875 C 19.585938 -33.421875 17.414062 -33.078125 15.21875 -32.390625 C 13.03125 -31.703125 11.164062 -30.753906 9.625 -29.546875 L 4.359375 -40.171875 C 6.828125 -41.816406 9.832031 -43.09375 13.375 -44 C 16.914062 -44.90625 20.46875 -45.359375 24.03125 -45.359375 Z M 23.453125 -9.140625 C 25.265625 -9.140625 26.859375 -9.578125 28.234375 -10.453125 C 29.609375 -11.328125 30.597656 -12.617188 31.203125 -14.328125 L 31.203125 -18.1875 L 24.453125 -18.1875 C 19.890625 -18.1875 17.609375 -16.675781 17.609375 -13.65625 C 17.609375 -12.289062 18.128906 -11.195312 19.171875 -10.375 C 20.222656 -9.550781 21.648438 -9.140625 23.453125 -9.140625 Z M 23.453125 -9.140625 "/></g></g></g><g fill="#1b2123" fill-opacity="1"><g transform="translate(124.743186, 86.509424)"><g><path d="M 35.8125 -1.8125 C 34.488281 -0.988281 32.878906 -0.359375 30.984375 0.078125 C 29.097656 0.515625 27.082031 0.734375 24.9375 0.734375 C 19.125 0.734375 14.648438 -0.6875 11.515625 -3.53125 C 8.390625 -6.382812 6.828125 -10.640625 6.828125 -16.296875 L 6.828125 -31.28125 L 0.328125 -31.28125 L 0.328125 -42.96875 L 6.828125 -42.96875 L 6.828125 -54.578125 L 22.46875 -54.578125 L 22.46875 -42.96875 L 32.671875 -42.96875 L 32.671875 -31.28125 L 22.46875 -31.28125 L 22.46875 -16.46875 C 22.46875 -14.875 22.890625 -13.625 23.734375 -12.71875 C 24.585938 -11.8125 25.726562 -11.359375 27.15625 -11.359375 C 28.96875 -11.359375 30.5625 -11.828125 31.9375 -12.765625 Z M 35.8125 -1.8125 "/></g></g></g><g fill="#1b2123" fill-opacity="1"><g transform="translate(155.274769, 86.509424)"><g><path d="M 21.234375 0.734375 C 17.503906 0.734375 13.828125 0.3125 10.203125 -0.53125 C 6.585938 -1.382812 3.679688 -2.5 1.484375 -3.875 L 6.171875 -14.5625 C 8.203125 -13.300781 10.613281 -12.300781 13.40625 -11.5625 C 16.207031 -10.820312 18.984375 -10.453125 21.734375 -10.453125 C 24.253906 -10.453125 26.050781 -10.710938 27.125 -11.234375 C 28.195312 -11.753906 28.734375 -12.507812 28.734375 -13.5 C 28.734375 -14.488281 28.085938 -15.1875 26.796875 -15.59375 C 25.503906 -16.007812 23.457031 -16.410156 20.65625 -16.796875 C 17.09375 -17.234375 14.0625 -17.804688 11.5625 -18.515625 C 9.0625 -19.234375 6.90625 -20.550781 5.09375 -22.46875 C 3.289062 -24.394531 2.390625 -27.082031 2.390625 -30.53125 C 2.390625 -33.382812 3.238281 -35.921875 4.9375 -38.140625 C 6.632812 -40.367188 9.113281 -42.128906 12.375 -43.421875 C 15.644531 -44.710938 19.5625 -45.359375 24.125 -45.359375 C 27.351562 -45.359375 30.554688 -45.023438 33.734375 -44.359375 C 36.921875 -43.703125 39.585938 -42.769531 41.734375 -41.5625 L 37.046875 -30.953125 C 33.085938 -33.140625 28.804688 -34.234375 24.203125 -34.234375 C 21.734375 -34.234375 19.921875 -33.945312 18.765625 -33.375 C 17.609375 -32.800781 17.03125 -32.046875 17.03125 -31.109375 C 17.03125 -30.066406 17.660156 -29.335938 18.921875 -28.921875 C 20.191406 -28.515625 22.28125 -28.09375 25.1875 -27.65625 C 28.863281 -27.101562 31.910156 -26.46875 34.328125 -25.75 C 36.742188 -25.039062 38.84375 -23.738281 40.625 -21.84375 C 42.40625 -19.957031 43.296875 -17.3125 43.296875 -13.90625 C 43.296875 -11.113281 42.441406 -8.601562 40.734375 -6.375 C 39.035156 -4.15625 36.523438 -2.414062 33.203125 -1.15625 C 29.890625 0.101562 25.898438 0.734375 21.234375 0.734375 Z M 21.234375 0.734375 "/></g></g></g><g clip-path="url(#631f04d0ec)"><g clip-path="url(#55b5a1a22b)"><g clip-path="url(#980683805f)"><path fill="#1b2123" d="M 68.003906 41.761719 C 59.792969 45.15625 51.34375 50.59375 44.21875 57.066406 C 40.675781 60.285156 37.546875 63.675781 34.914062 67.148438 L 33.574219 68.917969 L 27.984375 56.398438 C 25.511719 58.058594 20.078125 60.945312 14.289062 59.128906 C 11.480469 58.246094 9.613281 56.824219 8.574219 54.78125 C 7.21875 52.101562 5.394531 44.332031 12.769531 38.1875 C 18.160156 33.289062 26.707031 32.152344 28.484375 31.964844 C 29.066406 31.601562 29.59375 31.203125 30.09375 30.75 C 32.085938 28.9375 33.273438 26.5 34.652344 23.679688 C 36.617188 19.652344 39.0625 14.640625 44.871094 9.363281 C 45.585938 8.710938 46.347656 8.0625 47.132812 7.433594 C 54.003906 1.929688 59.492188 -0.0585938 63.917969 1.355469 C 65.878906 1.984375 70.96875 5.441406 72.785156 11.988281 C 73.828125 15.453125 72.722656 19.132812 70.753906 22.816406 C 69.824219 24.558594 68.03125 27.253906 64.765625 30.21875 C 63.875 31.03125 63.070312 31.683594 62.460938 32.148438 L 69.613281 41.09375 Z M 68.003906 41.761719 " fill-opacity="1" fill-rule="nonzero"/></g></g></g><g clip-path="url(#bd606846a5)"><g clip-path="url(#703a417a6d)"><g clip-path="url(#5b92d8ebac)"><path fill="#ff3131" d="M 70.886719 12.40625 C 72.019531 16.171875 71.015625 19.738281 69.265625 22.765625 C 66.121094 28.191406 60.570312 31.882812 60.570312 31.882812 L 67.488281 40.539062 C 64.308594 41.851562 61.105469 43.460938 57.953125 45.3125 C 48.773438 50.707031 40.0625 58.15625 33.859375 66.339844 L 28.511719 54.355469 C 28.511719 54.355469 21.773438 60.097656 14.667969 57.867188 C 10.148438 56.449219 7.503906 51.714844 9.792969 44.441406 C 13.164062 34.796875 28.925781 33.253906 28.925781 33.253906 C 36.78125 28.59375 34.6875 19.113281 47.964844 8.472656 C 61.199219 -2.136719 67.722656 1.890625 70.886719 12.40625 Z M 70.886719 12.40625 " fill-opacity="1" fill-rule="nonzero"/></g></g></g><g clip-path="url(#c725843a16)"><g clip-path="url(#c61448e4c3)"><g clip-path="url(#520c5a2fbf)"><path fill="#ff3131" d="M 27.695312 54.570312 C 27.695312 54.570312 22.324219 57.253906 19.152344 56.921875 C 15.902344 56.582031 14.628906 55.101562 15.257812 55.046875 C 15.882812 54.992188 18.972656 55.96875 20.371094 54.523438 C 21.769531 53.082031 18.148438 52.078125 19.867188 51.546875 C 21.585938 51.015625 24.066406 51.507812 25.644531 52.308594 C 27.21875 53.113281 27.695312 54.570312 27.695312 54.570312 Z M 27.695312 54.570312 " fill-opacity="1" fill-rule="nonzero"/></g></g></g><g clip-path="url(#992360def3)"><g clip-path="url(#70206df4cd)"><g clip-path="url(#2d45cd1be4)"><path fill="#ff3131" d="M 33.402344 30.855469 C 33.402344 30.855469 36.859375 28.460938 39.199219 23.820312 C 41.539062 19.179688 43.710938 16.304688 44.695312 17.386719 C 45.679688 18.472656 45.75 21.28125 42.121094 25.476562 C 38.492188 29.671875 33.402344 30.855469 33.402344 30.855469 Z M 33.402344 30.855469 " fill-opacity="1" fill-rule="nonzero"/></g></g></g><g clip-path="url(#74532ea4e5)"><g clip-path="url(#d8e88b9879)"><g clip-path="url(#da3304f4df)"><path fill="#ff3131" d="M 69.945312 18.121094 C 69.929688 18.222656 69.566406 20.976562 69.265625 22.765625 C 66.121094 28.191406 60.570312 31.882812 60.570312 31.882812 L 67.488281 40.539062 C 64.308594 41.851562 61.105469 43.460938 57.953125 45.3125 C 58.464844 44.257812 58.597656 42.925781 57.84375 41.304688 C 55.59375 36.480469 53.164062 34.328125 53.164062 34.328125 C 53.164062 34.328125 50.386719 40.726562 46.503906 43.285156 C 42.652344 45.824219 34.230469 44.890625 34.101562 44.875 C 34.171875 44.832031 38.109375 42.679688 39.933594 40.785156 C 41.773438 38.871094 41.773438 38.871094 41.773438 38.871094 C 38.761719 37.707031 35.972656 36.519531 37.65625 34.863281 C 37.65625 34.863281 47.171875 36.144531 54.738281 26.605469 C 62.308594 17.066406 59.578125 13.011719 63.195312 13.839844 C 66.8125 14.667969 64.8125 23.503906 66.875 22.359375 C 68.898438 21.230469 69.910156 18.226562 69.945312 18.121094 Z M 69.945312 18.121094 " fill-opacity="1" fill-rule="nonzero"/></g></g></g><g clip-path="url(#e3d25a0748)"><g clip-path="url(#18d27bed72)"><g clip-path="url(#4de3604c6c)"><path fill="#1b2123" d="M 24.417969 33.914062 C 24.417969 33.914062 29.710938 33.722656 33.859375 32.160156 C 38.007812 30.597656 39.9375 27.128906 39.9375 27.128906 C 39.9375 27.128906 36.257812 29.738281 33.402344 30.859375 C 30.546875 31.976562 29.90625 32.070312 29.90625 32.070312 Z M 24.417969 33.914062 " fill-opacity="1" fill-rule="nonzero"/></g></g></g><g clip-path="url(#667f51a45f)"><g clip-path="url(#1e1eb75ec0)"><g clip-path="url(#a93ec7a8fd)"><path fill="#1b2123" d="M 58.398438 28.132812 C 58.503906 28.984375 60.558594 31.8125 62.179688 33.886719 L 62.460938 32.148438 C 61.242188 30.695312 60.234375 29.382812 59.402344 28.1875 Z M 58.398438 28.132812 " fill-opacity="1" fill-rule="nonzero"/></g></g></g><g clip-path="url(#aa9eb78d62)"><g clip-path="url(#6c11a6b4eb)"><g clip-path="url(#f31d495ffe)"><path fill="#1b2123" d="M 63.628906 18.152344 C 63.628906 18.152344 63.832031 23.640625 56.246094 29.722656 C 48.664062 35.808594 42.222656 36.796875 42.222656 36.796875 C 42.222656 36.796875 48.917969 37.019531 56.253906 31.902344 C 60.792969 28.589844 59.589844 29.460938 61.808594 26.433594 C 64.027344 23.410156 63.628906 18.152344 63.628906 18.152344 Z M 63.628906 18.152344 " fill-opacity="1" fill-rule="nonzero"/></g></g></g><g clip-path="url(#9fc5af9807)"><g clip-path="url(#51ef198fc8)"><g clip-path="url(#c01730f1a8)"><path fill="#1b2123" d="M 46.269531 35.976562 C 44.714844 40.378906 39.390625 44.871094 33.65625 46.027344 C 33.65625 46.027344 35.914062 46.777344 40.910156 44.238281 C 45.90625 41.703125 48.777344 35.089844 48.777344 35.089844 Z M 46.269531 35.976562 " fill-opacity="1" fill-rule="nonzero"/></g></g></g><g clip-path="url(#e77bec8f1e)"><g clip-path="url(#99efa1b43b)"><g clip-path="url(#abbf09c0ec)"><path fill="#1b2123" d="M 29.070312 55.972656 C 29.007812 55.585938 28.753906 54.34375 27.945312 53.453125 C 27.140625 52.566406 22.554688 52.160156 22.554688 52.160156 C 22.554688 52.160156 25.578125 53.25 26.542969 53.992188 C 27.511719 54.734375 27.984375 56.398438 27.984375 56.398438 Z M 29.070312 55.972656 " fill-opacity="1" fill-rule="nonzero"/></g></g></g><g fill="#1b2123" fill-opacity="1"><g transform="translate(27.602954, 143.504216)"><g><path d="M 25.9375 -14.328125 C 25.9375 -11.953125 25.585938 -9.8125 24.890625 -7.90625 C 24.203125 -6.007812 23.265625 -4.390625 22.078125 -3.046875 C 20.890625 -1.710938 19.515625 -0.6875 17.953125 0.03125 C 16.390625 0.757812 14.738281 1.125 13 1.125 C 12.269531 1.125 11.472656 1.035156 10.609375 0.859375 C 9.753906 0.691406 8.894531 0.414062 8.03125 0.03125 C 7.175781 -0.351562 6.34375 -0.859375 5.53125 -1.484375 C 4.71875 -2.117188 3.992188 -2.898438 3.359375 -3.828125 C 2.722656 -4.765625 2.21875 -5.851562 1.84375 -7.09375 C 1.476562 -8.34375 1.304688 -9.78125 1.328125 -11.40625 C 1.328125 -13.257812 1.550781 -14.945312 2 -16.46875 C 2.457031 -18 3.039062 -19.367188 3.75 -20.578125 C 4.457031 -21.796875 5.265625 -22.84375 6.171875 -23.71875 C 7.078125 -24.601562 7.984375 -25.34375 8.890625 -25.9375 C 9.796875 -26.539062 10.664062 -26.988281 11.5 -27.28125 C 12.34375 -27.582031 13.066406 -27.753906 13.671875 -27.796875 C 13.992188 -27.816406 14.132812 -27.78125 14.09375 -27.6875 C 14.0625 -27.601562 13.976562 -27.503906 13.84375 -27.390625 C 13.707031 -27.273438 13.585938 -27.160156 13.484375 -27.046875 C 13.390625 -26.941406 13.429688 -26.875 13.609375 -26.84375 C 13.765625 -26.800781 13.894531 -26.753906 14 -26.703125 C 14.101562 -26.660156 14.210938 -26.609375 14.328125 -26.546875 L 14.59375 -26.84375 C 14.75 -26.957031 14.898438 -27.015625 15.046875 -27.015625 C 15.203125 -27.015625 15.332031 -27 15.4375 -26.96875 C 15.550781 -26.9375 15.640625 -26.921875 15.703125 -26.921875 C 15.773438 -26.921875 15.820312 -26.988281 15.84375 -27.125 C 15.894531 -27.375 15.984375 -27.515625 16.109375 -27.546875 C 16.234375 -27.578125 16.519531 -27.59375 16.96875 -27.59375 C 17.238281 -27.59375 17.648438 -27.515625 18.203125 -27.359375 C 18.765625 -27.203125 19.378906 -26.929688 20.046875 -26.546875 C 20.710938 -26.160156 21.390625 -25.644531 22.078125 -25 C 22.765625 -24.351562 23.394531 -23.535156 23.96875 -22.546875 C 24.550781 -21.566406 25.023438 -20.394531 25.390625 -19.03125 C 25.753906 -17.675781 25.9375 -16.109375 25.9375 -14.328125 Z M 13.671875 -24.265625 C 12.878906 -23.796875 12.097656 -23.148438 11.328125 -22.328125 C 10.566406 -21.515625 9.875 -20.578125 9.25 -19.515625 C 8.625 -18.453125 8.117188 -17.265625 7.734375 -15.953125 C 7.347656 -14.640625 7.15625 -13.257812 7.15625 -11.8125 C 7.15625 -10.25 7.296875 -8.832031 7.578125 -7.5625 C 7.867188 -6.300781 8.285156 -5.222656 8.828125 -4.328125 C 9.367188 -3.429688 10.03125 -2.738281 10.8125 -2.25 C 11.59375 -1.769531 12.476562 -1.53125 13.46875 -1.53125 C 14.351562 -1.53125 15.226562 -1.773438 16.09375 -2.265625 C 16.96875 -2.765625 17.742188 -3.515625 18.421875 -4.515625 C 19.109375 -5.515625 19.660156 -6.75 20.078125 -8.21875 C 20.492188 -9.6875 20.703125 -11.394531 20.703125 -13.34375 C 20.703125 -15.3125 20.441406 -16.960938 19.921875 -18.296875 C 19.398438 -19.628906 18.816406 -20.707031 18.171875 -21.53125 C 17.523438 -22.363281 16.90625 -22.953125 16.3125 -23.296875 C 15.726562 -23.648438 15.367188 -23.828125 15.234375 -23.828125 C 14.921875 -23.828125 14.675781 -23.828125 14.5 -23.828125 C 14.332031 -23.828125 14.054688 -23.972656 13.671875 -24.265625 Z M 13.671875 -24.265625 "/></g></g></g><g fill="#1b2123" fill-opacity="1"><g transform="translate(56.044419, 143.504216)"><g><path d="M 23.15625 -1.453125 C 23.15625 -1.179688 23.054688 -0.878906 22.859375 -0.546875 C 22.671875 -0.222656 22.394531 -0.0625 22.03125 -0.0625 C 21.820312 -0.0625 21.660156 -0.117188 21.546875 -0.234375 C 21.441406 -0.347656 21.332031 -0.40625 21.21875 -0.40625 C 21.0625 -0.40625 20.90625 -0.347656 20.75 -0.234375 C 20.601562 -0.117188 20.363281 -0.0625 20.03125 -0.0625 C 19.570312 -0.0625 19.175781 -0.222656 18.84375 -0.546875 C 18.519531 -0.878906 18.253906 -1.300781 18.046875 -1.8125 C 17.847656 -2.320312 17.695312 -2.875 17.59375 -3.46875 C 17.5 -4.070312 17.453125 -4.632812 17.453125 -5.15625 C 17.453125 -6.175781 17.488281 -7.335938 17.5625 -8.640625 C 17.644531 -9.941406 17.734375 -11.273438 17.828125 -12.640625 C 17.929688 -14.015625 18.023438 -15.378906 18.109375 -16.734375 C 18.191406 -18.085938 18.234375 -19.34375 18.234375 -20.5 C 18.234375 -22.039062 18.128906 -23.238281 17.921875 -24.09375 C 17.710938 -24.957031 17.347656 -25.390625 16.828125 -25.390625 C 16.335938 -25.316406 15.832031 -24.882812 15.3125 -24.09375 C 14.789062 -23.300781 14.253906 -22.289062 13.703125 -21.0625 C 13.160156 -19.832031 12.628906 -18.441406 12.109375 -16.890625 C 11.597656 -15.335938 11.097656 -13.75 10.609375 -12.125 C 10.117188 -10.507812 9.660156 -8.9375 9.234375 -7.40625 C 8.804688 -5.882812 8.421875 -4.523438 8.078125 -3.328125 C 7.734375 -2.128906 7.4375 -1.160156 7.1875 -0.421875 C 6.945312 0.304688 6.78125 0.671875 6.6875 0.671875 C 6.507812 0.671875 6.375 0.628906 6.28125 0.546875 C 6.1875 0.472656 6.097656 0.390625 6.015625 0.296875 C 5.941406 0.210938 5.847656 0.128906 5.734375 0.046875 C 5.617188 -0.0234375 5.453125 -0.0625 5.234375 -0.0625 C 5.023438 -0.0625 4.882812 -0.0390625 4.8125 0 C 4.75 0.0390625 4.671875 0.09375 4.578125 0.15625 C 4.492188 0.226562 4.382812 0.285156 4.25 0.328125 C 4.113281 0.378906 3.875 0.40625 3.53125 0.40625 C 3.125 0.40625 2.722656 0.300781 2.328125 0.09375 C 1.929688 -0.101562 1.734375 -0.414062 1.734375 -0.84375 C 1.734375 -1.113281 1.773438 -1.671875 1.859375 -2.515625 C 1.953125 -3.367188 2.0625 -4.410156 2.1875 -5.640625 C 2.3125 -6.878906 2.445312 -8.257812 2.59375 -9.78125 C 2.738281 -11.3125 2.875 -12.890625 3 -14.515625 C 3.125 -16.148438 3.234375 -17.78125 3.328125 -19.40625 C 3.421875 -21.039062 3.46875 -22.59375 3.46875 -24.0625 C 3.46875 -24.789062 3.453125 -25.460938 3.421875 -26.078125 C 3.398438 -26.703125 3.390625 -27.300781 3.390625 -27.875 C 3.390625 -28.007812 3.457031 -28.078125 3.59375 -28.078125 C 3.863281 -28.078125 4.070312 -28.023438 4.21875 -27.921875 C 4.375 -27.816406 4.484375 -27.707031 4.546875 -27.59375 C 4.617188 -27.476562 4.660156 -27.367188 4.671875 -27.265625 C 4.679688 -27.171875 4.695312 -27.125 4.71875 -27.125 C 4.78125 -27.125 4.859375 -27.160156 4.953125 -27.234375 C 5.046875 -27.316406 5.140625 -27.398438 5.234375 -27.484375 C 5.335938 -27.578125 5.4375 -27.664062 5.53125 -27.75 C 5.625 -27.832031 5.703125 -27.875 5.765625 -27.875 L 6.109375 -27.875 C 6.453125 -27.875 6.691406 -27.921875 6.828125 -28.015625 C 6.960938 -28.117188 7.054688 -28.234375 7.109375 -28.359375 C 7.171875 -28.484375 7.210938 -28.597656 7.234375 -28.703125 C 7.253906 -28.804688 7.320312 -28.859375 7.4375 -28.859375 C 7.5 -28.859375 7.59375 -28.804688 7.71875 -28.703125 C 7.84375 -28.597656 7.96875 -28.425781 8.09375 -28.1875 C 8.21875 -27.945312 8.320312 -27.632812 8.40625 -27.25 C 8.5 -26.863281 8.546875 -26.398438 8.546875 -25.859375 C 8.546875 -25.140625 8.519531 -24.222656 8.46875 -23.109375 C 8.414062 -22.003906 8.347656 -20.820312 8.265625 -19.5625 C 8.179688 -18.3125 8.101562 -17.046875 8.03125 -15.765625 C 7.96875 -14.484375 7.925781 -13.320312 7.90625 -12.28125 C 8.15625 -13.257812 8.453125 -14.34375 8.796875 -15.53125 C 9.148438 -16.71875 9.554688 -17.921875 10.015625 -19.140625 C 10.484375 -20.367188 10.988281 -21.5625 11.53125 -22.71875 C 12.082031 -23.882812 12.671875 -24.921875 13.296875 -25.828125 C 13.929688 -26.734375 14.597656 -27.460938 15.296875 -28.015625 C 16.003906 -28.578125 16.742188 -28.859375 17.515625 -28.859375 C 18.734375 -28.859375 19.734375 -28.628906 20.515625 -28.171875 C 21.296875 -27.722656 21.910156 -27.101562 22.359375 -26.3125 C 22.816406 -25.519531 23.128906 -24.585938 23.296875 -23.515625 C 23.472656 -22.453125 23.5625 -21.3125 23.5625 -20.09375 C 23.5625 -19.050781 23.515625 -17.957031 23.421875 -16.8125 C 23.328125 -15.675781 23.226562 -14.535156 23.125 -13.390625 C 23.03125 -12.242188 22.941406 -11.113281 22.859375 -10 C 22.773438 -8.894531 22.734375 -7.859375 22.734375 -6.890625 C 22.734375 -5.691406 22.800781 -4.609375 22.9375 -3.640625 C 23.082031 -2.679688 23.15625 -1.953125 23.15625 -1.453125 Z M 23.15625 -1.453125 "/></g></g></g><g fill="#1b2123" fill-opacity="1"><g transform="translate(83.094363, 143.504216)"><g/></g></g><g fill="#1b2123" fill-opacity="1"><g transform="translate(95.957514, 143.504216)"><g><path d="M 25.796875 -10.421875 C 25.796875 -9.128906 25.507812 -7.816406 24.9375 -6.484375 C 24.375 -5.148438 23.578125 -3.929688 22.546875 -2.828125 C 21.523438 -1.734375 20.273438 -0.832031 18.796875 -0.125 C 17.328125 0.570312 15.675781 0.921875 13.84375 0.921875 C 12.351562 0.921875 10.84375 0.601562 9.3125 -0.03125 C 7.789062 -0.664062 6.414062 -1.578125 5.1875 -2.765625 C 3.96875 -3.953125 2.972656 -5.394531 2.203125 -7.09375 C 1.429688 -8.789062 1.046875 -10.691406 1.046875 -12.796875 C 1.046875 -14.878906 1.445312 -16.851562 2.25 -18.71875 C 3.0625 -20.582031 4.125 -22.207031 5.4375 -23.59375 C 6.75 -24.988281 8.242188 -26.09375 9.921875 -26.90625 C 11.609375 -27.726562 13.347656 -28.140625 15.140625 -28.140625 C 16.785156 -28.140625 18.179688 -27.914062 19.328125 -27.46875 C 20.472656 -27.03125 21.394531 -26.507812 22.09375 -25.90625 C 22.800781 -25.3125 23.304688 -24.695312 23.609375 -24.0625 C 23.910156 -23.425781 24.0625 -22.914062 24.0625 -22.53125 C 24.0625 -21.675781 23.878906 -20.976562 23.515625 -20.4375 C 23.160156 -19.894531 22.75 -19.484375 22.28125 -19.203125 C 21.820312 -18.929688 21.378906 -18.78125 20.953125 -18.75 C 20.535156 -18.71875 20.269531 -18.789062 20.15625 -18.96875 C 20.070312 -19.0625 19.976562 -19.109375 19.875 -19.109375 C 19.769531 -19.109375 19.660156 -19.082031 19.546875 -19.03125 C 19.429688 -18.988281 19.320312 -18.945312 19.21875 -18.90625 C 19.125 -18.863281 19.039062 -18.863281 18.96875 -18.90625 C 18.851562 -18.945312 18.847656 -19.046875 18.953125 -19.203125 C 19.054688 -19.367188 19.109375 -19.507812 19.109375 -19.625 C 19.109375 -19.820312 19.101562 -20.050781 19.09375 -20.3125 C 19.082031 -20.570312 19.132812 -20.847656 19.25 -21.140625 C 19.445312 -21.546875 19.53125 -21.992188 19.5 -22.484375 C 19.46875 -22.972656 19.296875 -23.429688 18.984375 -23.859375 C 18.679688 -24.285156 18.207031 -24.644531 17.5625 -24.9375 C 16.914062 -25.238281 16.085938 -25.390625 15.078125 -25.390625 C 14.347656 -25.390625 13.484375 -25.148438 12.484375 -24.671875 C 11.492188 -24.203125 10.550781 -23.460938 9.65625 -22.453125 C 8.757812 -21.441406 8 -20.160156 7.375 -18.609375 C 6.757812 -17.066406 6.453125 -15.21875 6.453125 -13.0625 C 6.453125 -12.132812 6.566406 -11.160156 6.796875 -10.140625 C 7.035156 -9.128906 7.460938 -8.191406 8.078125 -7.328125 C 8.691406 -6.472656 9.519531 -5.765625 10.5625 -5.203125 C 11.601562 -4.648438 12.925781 -4.375 14.53125 -4.375 C 15.59375 -4.375 16.566406 -4.519531 17.453125 -4.8125 C 18.347656 -5.113281 19.160156 -5.488281 19.890625 -5.9375 C 20.617188 -6.394531 21.265625 -6.894531 21.828125 -7.4375 C 22.390625 -7.976562 22.863281 -8.488281 23.25 -8.96875 C 23.632812 -9.457031 23.929688 -9.882812 24.140625 -10.25 C 24.359375 -10.613281 24.492188 -10.84375 24.546875 -10.9375 C 24.628906 -11.039062 24.738281 -11.117188 24.875 -11.171875 C 25.007812 -11.234375 25.144531 -11.25 25.28125 -11.21875 C 25.414062 -11.1875 25.535156 -11.109375 25.640625 -10.984375 C 25.742188 -10.859375 25.796875 -10.671875 25.796875 -10.421875 Z M 25.796875 -10.421875 "/></g></g></g><g fill="#1b2123" fill-opacity="1"><g transform="translate(123.482614, 143.504216)"><g><path d="M 9.09375 -45.3125 C 9.09375 -45 9.070312 -44.378906 9.03125 -43.453125 C 8.988281 -42.523438 8.929688 -41.410156 8.859375 -40.109375 C 8.785156 -38.804688 8.707031 -37.378906 8.625 -35.828125 C 8.550781 -34.273438 8.46875 -32.722656 8.375 -31.171875 C 8.289062 -29.628906 8.210938 -28.128906 8.140625 -26.671875 C 8.078125 -25.222656 8.035156 -23.957031 8.015625 -22.875 C 7.960938 -22.21875 7.929688 -21.492188 7.921875 -20.703125 C 7.910156 -19.910156 7.90625 -19.0625 7.90625 -18.15625 C 7.90625 -16.957031 7.910156 -15.707031 7.921875 -14.40625 C 7.929688 -13.101562 7.945312 -11.816406 7.96875 -10.546875 C 8 -9.285156 8.03125 -8.070312 8.0625 -6.90625 C 8.09375 -5.738281 8.117188 -4.691406 8.140625 -3.765625 C 8.171875 -2.835938 8.191406 -2.0625 8.203125 -1.4375 C 8.210938 -0.820312 8.21875 -0.429688 8.21875 -0.265625 C 8.21875 0.046875 8.164062 0.285156 8.0625 0.453125 C 7.957031 0.628906 7.832031 0.742188 7.6875 0.796875 C 7.539062 0.847656 7.390625 0.859375 7.234375 0.828125 C 7.078125 0.796875 6.941406 0.742188 6.828125 0.671875 C 6.691406 0.609375 6.582031 0.53125 6.5 0.4375 C 6.414062 0.351562 6.351562 0.285156 6.3125 0.234375 C 6.269531 0.191406 6.226562 0.179688 6.1875 0.203125 C 6.15625 0.222656 6.128906 0.3125 6.109375 0.46875 C 6.046875 1.0625 5.914062 1.503906 5.71875 1.796875 C 5.53125 2.085938 5.328125 2.285156 5.109375 2.390625 C 4.890625 2.492188 4.691406 2.519531 4.515625 2.46875 C 4.335938 2.425781 4.222656 2.347656 4.171875 2.234375 C 4.128906 2.128906 4.054688 2.0625 3.953125 2.03125 C 3.847656 2.007812 3.738281 1.992188 3.625 1.984375 C 3.519531 1.972656 3.414062 1.9375 3.3125 1.875 C 3.207031 1.820312 3.144531 1.707031 3.125 1.53125 C 2.9375 0.757812 2.820312 -0.21875 2.78125 -1.40625 C 2.738281 -2.59375 2.71875 -3.9375 2.71875 -5.4375 C 2.71875 -6.71875 2.726562 -8.101562 2.75 -9.59375 C 2.769531 -11.09375 2.78125 -12.625 2.78125 -14.1875 C 2.78125 -15.09375 2.78125 -15.992188 2.78125 -16.890625 C 2.78125 -17.785156 2.757812 -18.695312 2.71875 -19.625 L 2.71875 -21.75 C 2.71875 -23.582031 2.757812 -25.421875 2.84375 -27.265625 C 2.9375 -29.117188 3.050781 -30.890625 3.1875 -32.578125 C 3.320312 -34.273438 3.46875 -35.867188 3.625 -37.359375 C 3.789062 -38.859375 3.925781 -40.1875 4.03125 -41.34375 C 4.144531 -42.5 4.234375 -43.4375 4.296875 -44.15625 C 4.367188 -44.882812 4.394531 -45.335938 4.375 -45.515625 C 4.351562 -45.671875 4.367188 -45.78125 4.421875 -45.84375 C 4.484375 -45.914062 4.5625 -45.957031 4.65625 -45.96875 C 4.757812 -45.988281 4.867188 -46.003906 4.984375 -46.015625 C 5.097656 -46.023438 5.203125 -46.050781 5.296875 -46.09375 C 5.453125 -46.1875 5.582031 -46.210938 5.6875 -46.171875 C 5.789062 -46.140625 5.875 -46.085938 5.9375 -46.015625 C 6.007812 -45.953125 6.070312 -45.878906 6.125 -45.796875 C 6.1875 -45.722656 6.269531 -45.6875 6.375 -45.6875 C 6.507812 -45.707031 6.617188 -45.742188 6.703125 -45.796875 C 6.785156 -45.859375 6.851562 -45.914062 6.90625 -45.96875 C 6.96875 -46.03125 7.023438 -46.082031 7.078125 -46.125 C 7.128906 -46.175781 7.203125 -46.1875 7.296875 -46.15625 C 7.472656 -46.113281 7.644531 -46.085938 7.8125 -46.078125 C 7.988281 -46.066406 8.078125 -46.09375 8.078125 -46.15625 C 8.117188 -46.34375 8.1875 -46.429688 8.28125 -46.421875 C 8.375 -46.410156 8.488281 -46.347656 8.625 -46.234375 C 8.757812 -46.117188 8.867188 -46 8.953125 -45.875 C 9.046875 -45.75 9.09375 -45.5625 9.09375 -45.3125 Z M 9.09375 -45.3125 "/></g></g></g><g fill="#1b2123" fill-opacity="1"><g transform="translate(135.225749, 143.504216)"><g><path d="M 11.0625 -44.296875 C 11.082031 -43.835938 11.066406 -43.332031 11.015625 -42.78125 C 10.960938 -42.226562 10.875 -41.691406 10.75 -41.171875 C 10.625 -40.648438 10.453125 -40.1875 10.234375 -39.78125 C 10.015625 -39.375 9.757812 -39.09375 9.46875 -38.9375 C 8.71875 -38.550781 8.0625 -38.359375 7.5 -38.359375 C 7.050781 -38.359375 6.660156 -38.460938 6.328125 -38.671875 C 6.003906 -38.890625 5.679688 -39.132812 5.359375 -39.40625 C 4.910156 -39.769531 4.53125 -40.242188 4.21875 -40.828125 C 3.914062 -41.421875 3.765625 -41.988281 3.765625 -42.53125 C 3.765625 -42.957031 3.835938 -43.484375 3.984375 -44.109375 C 4.128906 -44.734375 4.316406 -45.335938 4.546875 -45.921875 C 4.773438 -46.515625 5.019531 -47.050781 5.28125 -47.53125 C 5.539062 -48.019531 5.796875 -48.351562 6.046875 -48.53125 C 6.429688 -48.851562 6.785156 -49.03125 7.109375 -49.0625 C 7.441406 -49.09375 7.707031 -49.078125 7.90625 -49.015625 C 8.40625 -48.898438 8.847656 -48.753906 9.234375 -48.578125 C 9.617188 -48.410156 9.941406 -48.148438 10.203125 -47.796875 C 10.460938 -47.453125 10.660156 -46.992188 10.796875 -46.421875 C 10.929688 -45.859375 11.019531 -45.148438 11.0625 -44.296875 Z M 8.28125 -29.125 C 8.394531 -29.007812 8.476562 -28.632812 8.53125 -28 C 8.59375 -27.363281 8.625 -26.539062 8.625 -25.53125 C 8.625 -24.84375 8.609375 -24.101562 8.578125 -23.3125 C 8.554688 -22.519531 8.53125 -21.707031 8.5 -20.875 C 8.46875 -20.039062 8.425781 -19.195312 8.375 -18.34375 C 8.332031 -17.5 8.300781 -16.691406 8.28125 -15.921875 C 8.21875 -14.648438 8.175781 -13.476562 8.15625 -12.40625 C 8.144531 -11.332031 8.140625 -10.296875 8.140625 -9.296875 C 8.140625 -7.984375 8.148438 -6.785156 8.171875 -5.703125 C 8.203125 -4.617188 8.21875 -3.710938 8.21875 -2.984375 C 8.21875 -2.191406 8.1875 -1.585938 8.125 -1.171875 C 8.070312 -0.753906 7.953125 -0.519531 7.765625 -0.46875 C 7.566406 -0.425781 7.398438 -0.332031 7.265625 -0.1875 C 7.128906 -0.0390625 7.003906 0.0976562 6.890625 0.234375 C 6.773438 0.367188 6.644531 0.488281 6.5 0.59375 C 6.351562 0.695312 6.175781 0.722656 5.96875 0.671875 C 5.851562 0.648438 5.660156 0.550781 5.390625 0.375 C 5.117188 0.195312 4.832031 -0.0195312 4.53125 -0.28125 C 4.226562 -0.539062 3.941406 -0.84375 3.671875 -1.1875 C 3.398438 -1.53125 3.21875 -1.878906 3.125 -2.234375 C 3.082031 -2.421875 3.039062 -2.785156 3 -3.328125 C 2.96875 -3.867188 2.941406 -4.523438 2.921875 -5.296875 C 2.898438 -6.066406 2.875 -6.921875 2.84375 -7.859375 C 2.820312 -8.796875 2.804688 -9.742188 2.796875 -10.703125 C 2.785156 -11.671875 2.78125 -12.617188 2.78125 -13.546875 C 2.78125 -14.472656 2.78125 -15.3125 2.78125 -16.0625 C 2.78125 -17.207031 2.816406 -18.378906 2.890625 -19.578125 C 2.972656 -20.785156 3.066406 -21.90625 3.171875 -22.9375 C 3.273438 -23.976562 3.375 -24.890625 3.46875 -25.671875 C 3.570312 -26.453125 3.648438 -27.003906 3.703125 -27.328125 C 3.785156 -27.867188 3.878906 -28.289062 3.984375 -28.59375 C 4.085938 -28.90625 4.203125 -29.128906 4.328125 -29.265625 C 4.453125 -29.398438 4.578125 -29.484375 4.703125 -29.515625 C 4.828125 -29.546875 4.957031 -29.570312 5.09375 -29.59375 C 5.363281 -29.644531 5.671875 -29.65625 6.015625 -29.625 C 6.367188 -29.601562 6.703125 -29.570312 7.015625 -29.53125 C 7.335938 -29.488281 7.617188 -29.425781 7.859375 -29.34375 C 8.097656 -29.257812 8.238281 -29.1875 8.28125 -29.125 Z M 8.28125 -29.125 "/></g></g></g><g fill="#1b2123" fill-opacity="1"><g transform="translate(147.036763, 143.504216)"><g><path d="M 25.796875 -10.421875 C 25.796875 -9.128906 25.507812 -7.816406 24.9375 -6.484375 C 24.375 -5.148438 23.578125 -3.929688 22.546875 -2.828125 C 21.523438 -1.734375 20.273438 -0.832031 18.796875 -0.125 C 17.328125 0.570312 15.675781 0.921875 13.84375 0.921875 C 12.351562 0.921875 10.84375 0.601562 9.3125 -0.03125 C 7.789062 -0.664062 6.414062 -1.578125 5.1875 -2.765625 C 3.96875 -3.953125 2.972656 -5.394531 2.203125 -7.09375 C 1.429688 -8.789062 1.046875 -10.691406 1.046875 -12.796875 C 1.046875 -14.878906 1.445312 -16.851562 2.25 -18.71875 C 3.0625 -20.582031 4.125 -22.207031 5.4375 -23.59375 C 6.75 -24.988281 8.242188 -26.09375 9.921875 -26.90625 C 11.609375 -27.726562 13.347656 -28.140625 15.140625 -28.140625 C 16.785156 -28.140625 18.179688 -27.914062 19.328125 -27.46875 C 20.472656 -27.03125 21.394531 -26.507812 22.09375 -25.90625 C 22.800781 -25.3125 23.304688 -24.695312 23.609375 -24.0625 C 23.910156 -23.425781 24.0625 -22.914062 24.0625 -22.53125 C 24.0625 -21.675781 23.878906 -20.976562 23.515625 -20.4375 C 23.160156 -19.894531 22.75 -19.484375 22.28125 -19.203125 C 21.820312 -18.929688 21.378906 -18.78125 20.953125 -18.75 C 20.535156 -18.71875 20.269531 -18.789062 20.15625 -18.96875 C 20.070312 -19.0625 19.976562 -19.109375 19.875 -19.109375 C 19.769531 -19.109375 19.660156 -19.082031 19.546875 -19.03125 C 19.429688 -18.988281 19.320312 -18.945312 19.21875 -18.90625 C 19.125 -18.863281 19.039062 -18.863281 18.96875 -18.90625 C 18.851562 -18.945312 18.847656 -19.046875 18.953125 -19.203125 C 19.054688 -19.367188 19.109375 -19.507812 19.109375 -19.625 C 19.109375 -19.820312 19.101562 -20.050781 19.09375 -20.3125 C 19.082031 -20.570312 19.132812 -20.847656 19.25 -21.140625 C 19.445312 -21.546875 19.53125 -21.992188 19.5 -22.484375 C 19.46875 -22.972656 19.296875 -23.429688 18.984375 -23.859375 C 18.679688 -24.285156 18.207031 -24.644531 17.5625 -24.9375 C 16.914062 -25.238281 16.085938 -25.390625 15.078125 -25.390625 C 14.347656 -25.390625 13.484375 -25.148438 12.484375 -24.671875 C 11.492188 -24.203125 10.550781 -23.460938 9.65625 -22.453125 C 8.757812 -21.441406 8 -20.160156 7.375 -18.609375 C 6.757812 -17.066406 6.453125 -15.21875 6.453125 -13.0625 C 6.453125 -12.132812 6.566406 -11.160156 6.796875 -10.140625 C 7.035156 -9.128906 7.460938 -8.191406 8.078125 -7.328125 C 8.691406 -6.472656 9.519531 -5.765625 10.5625 -5.203125 C 11.601562 -4.648438 12.925781 -4.375 14.53125 -4.375 C 15.59375 -4.375 16.566406 -4.519531 17.453125 -4.8125 C 18.347656 -5.113281 19.160156 -5.488281 19.890625 -5.9375 C 20.617188 -6.394531 21.265625 -6.894531 21.828125 -7.4375 C 22.390625 -7.976562 22.863281 -8.488281 23.25 -8.96875 C 23.632812 -9.457031 23.929688 -9.882812 24.140625 -10.25 C 24.359375 -10.613281 24.492188 -10.84375 24.546875 -10.9375 C 24.628906 -11.039062 24.738281 -11.117188 24.875 -11.171875 C 25.007812 -11.234375 25.144531 -11.25 25.28125 -11.21875 C 25.414062 -11.1875 25.535156 -11.109375 25.640625 -10.984375 C 25.742188 -10.859375 25.796875 -10.671875 25.796875 -10.421875 Z M 25.796875 -10.421875 "/></g></g></g><g fill="#1b2123" fill-opacity="1"><g transform="translate(174.561862, 143.504216)"><g><path d="M 9.03125 -45.828125 C 9.050781 -45.753906 9.035156 -45.363281 8.984375 -44.65625 C 8.941406 -43.957031 8.878906 -43.039062 8.796875 -41.90625 C 8.722656 -40.78125 8.628906 -39.484375 8.515625 -38.015625 C 8.398438 -36.546875 8.28125 -35 8.15625 -33.375 C 8.039062 -31.757812 7.921875 -30.109375 7.796875 -28.421875 C 7.671875 -26.742188 7.550781 -25.132812 7.4375 -23.59375 C 7.320312 -22.050781 7.222656 -20.625 7.140625 -19.3125 C 7.066406 -18 7.003906 -16.890625 6.953125 -15.984375 C 7.429688 -16.253906 8.003906 -16.703125 8.671875 -17.328125 C 9.335938 -17.953125 10.035156 -18.660156 10.765625 -19.453125 C 11.503906 -20.242188 12.257812 -21.070312 13.03125 -21.9375 C 13.800781 -22.8125 14.523438 -23.640625 15.203125 -24.421875 C 15.878906 -25.203125 16.488281 -25.894531 17.03125 -26.5 C 17.582031 -27.113281 18.003906 -27.546875 18.296875 -27.796875 C 18.703125 -28.140625 19.046875 -28.359375 19.328125 -28.453125 C 19.609375 -28.554688 19.84375 -28.59375 20.03125 -28.5625 C 20.226562 -28.53125 20.390625 -28.453125 20.515625 -28.328125 C 20.640625 -28.203125 20.75 -28.070312 20.84375 -27.9375 C 20.90625 -27.800781 20.960938 -27.640625 21.015625 -27.453125 C 21.078125 -27.273438 21.097656 -27.078125 21.078125 -26.859375 C 21.054688 -26.648438 20.972656 -26.429688 20.828125 -26.203125 C 20.679688 -25.972656 20.4375 -25.75 20.09375 -25.53125 C 19.507812 -25.09375 18.867188 -24.414062 18.171875 -23.5 C 17.484375 -22.582031 16.71875 -21.59375 15.875 -20.53125 C 15.039062 -19.46875 14.128906 -18.425781 13.140625 -17.40625 C 12.160156 -16.394531 11.097656 -15.570312 9.953125 -14.9375 C 10.285156 -14.59375 10.679688 -14.101562 11.140625 -13.46875 C 11.609375 -12.84375 12.128906 -12.15625 12.703125 -11.40625 C 13.285156 -10.65625 13.921875 -9.894531 14.609375 -9.125 C 15.296875 -8.363281 16.039062 -7.664062 16.84375 -7.03125 C 17.65625 -6.394531 18.507812 -5.875 19.40625 -5.46875 C 20.3125 -5.0625 21.273438 -4.859375 22.296875 -4.859375 C 23.410156 -4.828125 24.410156 -4.929688 25.296875 -5.171875 C 26.191406 -5.410156 26.96875 -5.695312 27.625 -6.03125 C 28.28125 -6.375 28.816406 -6.710938 29.234375 -7.046875 C 29.660156 -7.390625 29.953125 -7.65625 30.109375 -7.84375 C 30.515625 -8.40625 30.859375 -8.582031 31.140625 -8.375 C 31.421875 -8.175781 31.539062 -7.726562 31.5 -7.03125 C 31.476562 -6.757812 31.367188 -6.34375 31.171875 -5.78125 C 30.984375 -5.226562 30.707031 -4.625 30.34375 -3.96875 C 29.976562 -3.3125 29.535156 -2.640625 29.015625 -1.953125 C 28.492188 -1.265625 27.890625 -0.632812 27.203125 -0.0625 C 26.515625 0.5 25.734375 0.957031 24.859375 1.3125 C 23.992188 1.675781 23.050781 1.859375 22.03125 1.859375 C 20.71875 1.859375 19.507812 1.578125 18.40625 1.015625 C 17.3125 0.453125 16.300781 -0.269531 15.375 -1.15625 C 14.445312 -2.039062 13.59375 -3.03125 12.8125 -4.125 C 12.03125 -5.21875 11.300781 -6.296875 10.625 -7.359375 C 9.945312 -8.429688 9.304688 -9.414062 8.703125 -10.3125 C 8.109375 -11.21875 7.523438 -11.929688 6.953125 -12.453125 C 7.003906 -12.085938 7.03125 -11.71875 7.03125 -11.34375 C 7.03125 -10.976562 7.03125 -10.601562 7.03125 -10.21875 C 7.03125 -9.039062 7.023438 -7.800781 7.015625 -6.5 C 7.003906 -5.195312 6.984375 -3.988281 6.953125 -2.875 C 6.929688 -1.769531 6.914062 -0.828125 6.90625 -0.046875 C 6.894531 0.734375 6.890625 1.191406 6.890625 1.328125 C 6.890625 1.660156 6.757812 1.878906 6.5 1.984375 C 6.238281 2.085938 5.972656 2.140625 5.703125 2.140625 C 5.453125 2.140625 5.148438 2.03125 4.796875 1.8125 C 4.453125 1.601562 4.109375 1.351562 3.765625 1.0625 C 3.429688 0.78125 3.109375 0.492188 2.796875 0.203125 C 2.492188 -0.0859375 2.273438 -0.3125 2.140625 -0.46875 C 2.023438 -0.632812 1.9375 -1.203125 1.875 -2.171875 C 1.820312 -3.140625 1.796875 -4.429688 1.796875 -6.046875 C 1.796875 -7.191406 1.804688 -8.484375 1.828125 -9.921875 C 1.847656 -11.359375 1.882812 -12.882812 1.9375 -14.5 C 2 -16.125 2.0625 -17.8125 2.125 -19.5625 C 2.195312 -21.320312 2.28125 -23.09375 2.375 -24.875 C 2.507812 -27.90625 2.632812 -30.5625 2.75 -32.84375 C 2.863281 -35.132812 2.976562 -37.113281 3.09375 -38.78125 C 3.207031 -40.445312 3.34375 -41.828125 3.5 -42.921875 C 3.65625 -44.015625 3.835938 -44.878906 4.046875 -45.515625 C 4.109375 -45.671875 4.25 -45.847656 4.46875 -46.046875 C 4.695312 -46.253906 4.992188 -46.425781 5.359375 -46.5625 C 5.878906 -46.75 6.347656 -46.9375 6.765625 -47.125 C 7.191406 -47.320312 7.457031 -47.421875 7.5625 -47.421875 C 7.726562 -47.421875 7.894531 -47.363281 8.0625 -47.25 C 8.226562 -47.132812 8.378906 -47 8.515625 -46.84375 C 8.648438 -46.6875 8.765625 -46.515625 8.859375 -46.328125 C 8.953125 -46.148438 9.007812 -45.984375 9.03125 -45.828125 Z M 9.03125 -45.828125 "/></g></g></g></svg>